# xmcd
#
# Track frame offsets:
#	150
#	19777
#	35127
#	51942
#	70995
#	86515
#	105665
#	126112
#	139980
#	157397
#	177237
#	195350
#	220255
#
# Disc length: 3190 seconds
#
# Revision: 1
# Processed by: cddbd v1.4PL0 Copyright (c) Steve Scherf et al.
# Submitted via: audiograbber 1.80
#
DISCID=c00c740d
DTITLE=Melissa E Marcus - Melissa e Marcus
DYEAR=1900
DGENRE=
TTITLE0=Como é Gostoso Te Amar
TTITLE1=Letra De Canção
TTITLE2=Isso Não Vai Mudar
TTITLE3=Meu Doce Amor (Kono Yume)
TTITLE4=Coisinha Estúpida (Something's Stupid)
TTITLE5=Amor Demais
TTITLE6=They Long To Be Close To You
TTITLE7=Olhando Para O Céu (Sukiyaki)
TTITLE8=Teu Canto Somos Nós
TTITLE9=When I Fall In Love
TTITLE10=Amor Sem Fim (Pro Que Der E Vier)
TTITLE11=Entender Os Corações Dos Homens
TTITLE12=From This Moment On
EXTD=
EXTT0=
EXTT1=
EXTT2=
EXTT3=
EXTT4=
EXTT5=
EXTT6=
EXTT7=
EXTT8=
EXTT9=
EXTT10=
EXTT11=
EXTT12=
PLAYORDER=
